<svg width="52" height="54" viewBox="0 0 52 54" fill="none" xmlns="http://www.w3.org/2000/svg">
<path d="M49 25H37.5C36.3954 25 35.5 24.1046 35.5 23L35.5 2.5V1.85355C35.5 1.62718 35.4101 1.41007 35.25 1.25C35.0899 1.08993 34.8728 1 34.6464 1H34.5L17.5 1H16.5H16.3536C16.1272 1 15.9101 1.08993 15.75 1.25C15.5899 1.41007 15.5 1.62718 15.5 1.85355V23C15.5 24.1046 14.6046 25 13.5 25L3.5 25H1.71622C1.32066 25 1 25.3207 1 25.7162C1 25.8985 1.06951 26.0739 1.19436 26.2068L24.5 51L25.5 52C25.7761 52.2761 26.2239 52.2761 26.5 52L27.5 51L50.31 26.2065C50.4322 26.0737 50.5 25.8999 50.5 25.7194C50.5 25.3221 50.1779 25 49.7806 25H49Z" fill="white" stroke="#89898C" stroke-width="2"/>
</svg>
