<svg width="52" height="54" viewBox="0 0 52 54" fill="none" xmlns="http://www.w3.org/2000/svg">
<path d="M2.5 28.5H14C15.1046 28.5 16 29.3954 16 30.5V51V51.6464C16 51.8728 16.0899 52.0899 16.25 52.25C16.4101 52.4101 16.6272 52.5 16.8536 52.5H17H34H35H35.1464C35.3728 52.5 35.5899 52.4101 35.75 52.25C35.9101 52.0899 36 51.8728 36 51.6464V30.5C36 29.3954 36.8954 28.5 38 28.5H48H49.7838C50.1793 28.5 50.5 28.1793 50.5 27.7838C50.5 27.6015 50.4305 27.4261 50.3056 27.2932L27 2.5L26 1.5C25.7239 1.22386 25.2761 1.22386 25 1.5L24 2.5L1.18997 27.2935C1.06781 27.4263 1 27.6001 1 27.7806C1 28.1779 1.32209 28.5 1.71941 28.5H2.5Z" fill="white" stroke="#89898C" stroke-width="2"/>
</svg>
